<?xml version="1.0" encoding="UTF-8"?><svg xmlns="http://www.w3.org/2000/svg" viewBox="0 0 32 32"><defs><style>.c{fill:#67797d;}.d{fill:#fff;}</style></defs><g id="a"><rect class="c" width="32" height="32" rx="8.92" ry="8.92"/></g><g id="b"><path class="d" d="M21.03,4c-.74.02-1.52.09-2.31.22-3.19.53-6.76,2.06-9.62,4.88-2.82,2.87-4.34,6.46-4.88,9.66s-.22,6.06,1.38,7.66c1.59,1.59,4.45,1.93,7.66,1.41s6.79-2.04,9.66-4.91,4.34-6.39,4.88-9.59.23-6.08-1.34-7.72h-.03v-.03c-.82-.78-1.96-1.23-3.28-1.44-.66-.11-1.36-.14-2.09-.12ZM21.03,6.03c.63,0,1.23.04,1.75.12,1.03.17,1.8.48,2.19.84,0,0,.02.02.03.03.72.79,1.28,3.17.81,5.97-.47,2.82-1.83,6.02-4.31,8.5s-5.74,3.89-8.56,4.34c-2.82.46-5.23-.13-5.94-.84-.7-.7-1.28-3.11-.81-5.94s1.83-6.03,4.31-8.56c2.53-2.48,5.72-3.84,8.53-4.31.7-.12,1.37-.16,2-.16ZM21.28,9.28l-2.28,2.28-1.78-1.78-1.44,1.44,1.78,1.78-1.56,1.56-1.78-1.78-1.44,1.44,1.78,1.78-1.56,1.56-1.78-1.78-1.44,1.44,1.78,1.78-2.28,2.28,1.44,1.44,2.28-2.28,1.78,1.78,1.44-1.44-1.78-1.78,1.56-1.56,1.78,1.78,1.44-1.44-1.78-1.78,1.56-1.56,1.78,1.78,1.44-1.44-1.78-1.78,2.28-2.28-1.44-1.44Z"/></g></svg>