<?xml version="1.0" encoding="UTF-8"?>
<svg xmlns="http://www.w3.org/2000/svg" version="1.1" viewBox="0 0 32 32">
  <!-- Generator: Adobe Illustrator 29.0.1, SVG Export Plug-In . SVG Version: 2.1.0 Build 192)  -->
  <defs>
    <style>
      .st0 {
        fill: #67797d;
      }

      .st1 {
        fill: #fff;
      }

      .st2 {
        display: none;
      }
    </style>
  </defs>
  <g id="Layer_2" class="st2">
    <path class="st0" d="M5.5,25c-.8-1.2-.7-2.7-.3-5.2.2-1.8.5-3.8,1.6-6.1,2.9-5.8,8.9-7.7,10.1-8.1,2.2-.7,5.8-1.8,8.1,0,1.2,1,1.5,2.5,1.8,3.9.7,3.4-.3,6.3-.7,7.3-1.5,3.9-4.4,6-5.8,7-1.4,1-4.7,3.3-9.2,3.1-1.5,0-4.3-.2-5.6-2.1Z"/>
  </g>
  <g id="Layer_3">
    <rect class="st0" width="32" height="32" rx="8.9" ry="8.9"/>
  </g>
  <g id="Layer_1">
    <path class="st1" d="M21,4c-.7,0-1.5,0-2.3.2-3.2.5-6.8,2.1-9.6,4.9-2.8,2.9-4.3,6.5-4.9,9.7s-.2,6.1,1.4,7.7c1.6,1.6,4.5,1.9,7.7,1.4s6.8-2,9.7-4.9,4.3-6.4,4.9-9.6.2-6.1-1.3-7.7h0c-.8-.8-2-1.3-3.3-1.5-.7-.1-1.4-.1-2.1-.1ZM21,6c.6,0,1.2,0,1.8.1,1,.2,1.8.5,2.2.8,0,0,0,0,0,0,.7.8,1.3,3.2.8,6-.5,2.8-1.8,6-4.3,8.5s-5.7,3.9-8.6,4.3c-2.8.5-5.2-.1-5.9-.8-.7-.7-1.3-3.1-.8-5.9s1.8-6,4.3-8.6c2.5-2.5,5.7-3.8,8.5-4.3.7-.1,1.4-.2,2-.2ZM21.3,9.3l-2.3,2.3-1.8-1.8-1.4,1.4,1.8,1.8-1.6,1.6-1.8-1.8-1.4,1.4,1.8,1.8-1.6,1.6-1.8-1.8-1.4,1.4,1.8,1.8-2.3,2.3,1.4,1.4,2.3-2.3,1.8,1.8,1.4-1.4-1.8-1.8,1.6-1.6,1.8,1.8,1.4-1.4-1.8-1.8,1.6-1.6,1.8,1.8,1.4-1.4-1.8-1.8,2.3-2.3-1.4-1.4Z"/>
  </g>
</svg>